<svg id="visual" viewBox="0 0 1200 1200" width="1200" height="1200" xmlns="http://www.w3.org/2000/svg" xmlns:xlink="http://www.w3.org/1999/xlink" version="1.1"><g><g transform="translate(146 962)"><path d="M66.8 -21.9C75.5 5.2 63.9 38.6 41.9 53.7C19.8 68.8 -12.8 65.6 -36.2 48.8C-59.6 32 -73.8 1.7 -66.2 -23.8C-58.7 -49.2 -29.3 -69.9 -0.2 -69.8C29 -69.8 58.1 -49 66.8 -21.9Z" fill="#C7D2FE"></path></g><g transform="translate(152 190)"><path d="M20.4 -6C23.7 3.6 21.8 15.5 14.7 20.7C7.6 26 -4.6 24.6 -13.4 18.3C-22.2 11.9 -27.5 0.6 -24.7 -8.3C-21.9 -17.2 -11 -23.6 -1.2 -23.2C8.5 -22.8 17.1 -15.6 20.4 -6Z" fill="#C7D2FE"></path></g><g transform="translate(705 817)"><path d="M34.1 -10.6C38.5 2.5 32.5 19.5 22.1 26C11.8 32.4 -2.9 28.4 -13 20.5C-23 12.6 -28.3 0.8 -25.3 -10.3C-22.4 -21.4 -11.2 -31.8 1.8 -32.4C14.8 -33 29.7 -23.7 34.1 -10.6Z" fill="#C7D2FE"></path></g><g transform="translate(338 144)"><path d="M37.9 -11.7C42.6 1.9 35.2 20.1 23.1 27.8C11.1 35.6 -5.5 33 -16.9 24.5C-28.3 15.9 -34.4 1.4 -30.8 -10.9C-27.1 -23.2 -13.5 -33.3 1.6 -33.8C16.7 -34.3 33.3 -25.3 37.9 -11.7Z" fill="#C7D2FE"></path></g><g transform="translate(923 177)"><path d="M23.3 -7.5C26.6 2.6 23.2 14.9 14.8 21.1C6.4 27.4 -6.9 27.6 -15.7 21.3C-24.6 14.9 -29 2 -25.7 -8.2C-22.3 -18.4 -11.1 -25.9 -0.6 -25.7C10 -25.5 20 -17.6 23.3 -7.5Z" fill="#C7D2FE"></path></g><g transform="translate(517 568)"><path d="M35.5 -11.2C40.7 4.5 36 23.7 23.7 32.7C11.4 41.6 -8.5 40.3 -23.1 30.1C-37.7 19.9 -47 0.8 -42.3 -14.2C-37.6 -29.2 -18.8 -40.1 -1.8 -39.6C15.2 -39 30.3 -26.9 35.5 -11.2Z" fill="#C7D2FE"></path></g><g transform="translate(497 1095)"><path d="M40.6 -14.8C45.2 0.7 36.1 19 22.4 28.3C8.8 37.7 -9.6 38 -20.4 29.8C-31.2 21.5 -34.4 4.6 -29.8 -11.1C-25.1 -26.8 -12.6 -41.4 2.8 -42.3C18.1 -43.2 36.1 -30.4 40.6 -14.8Z" fill="#C7D2FE"></path></g><g transform="translate(146 414)"><path d="M30.9 -8.2C35.4 3.8 31.2 20.5 21.3 27.2C11.3 33.9 -4.3 30.7 -13.6 22.9C-22.8 15.2 -25.7 2.9 -22.4 -7.4C-19.1 -17.8 -9.5 -26.3 1.8 -26.9C13.2 -27.5 26.4 -20.2 30.9 -8.2Z" fill="#C7D2FE"></path></g><g transform="translate(179 698)"><path d="M22.7 -6.5C26.2 3.2 23.4 15.7 16.2 20.5C9.1 25.2 -2.4 22.2 -11.1 15.7C-19.8 9.3 -25.7 -0.5 -23.4 -8.6C-21.1 -16.7 -10.5 -23.2 -0.4 -23C9.7 -22.9 19.3 -16.1 22.7 -6.5Z" fill="#C7D2FE"></path></g><g transform="translate(1016 1100)"><path d="M40.5 -12.9C46.8 6.4 42.5 29.4 28.5 39.7C14.5 50 -9.1 47.5 -24.3 35.8C-39.5 24.2 -46.4 3.4 -41 -14.7C-35.5 -32.8 -17.8 -48.2 -0.4 -48.1C17.1 -48 34.1 -32.3 40.5 -12.9Z" fill="#C7D2FE"></path></g><g transform="translate(773 473)"><path d="M32.9 -8.9C37.9 4.7 33.9 23 21.5 32.7C9.2 42.4 -11.6 43.5 -23.4 34.5C-35.2 25.4 -38 6.1 -32.6 -8.1C-27.2 -22.3 -13.6 -31.4 0.2 -31.5C13.9 -31.5 27.9 -22.6 32.9 -8.9Z" fill="#C7D2FE"></path></g><g transform="translate(660 145)"><path d="M34.2 -9.3C40.3 7.7 38.5 29 25.4 39.7C12.2 50.4 -12.2 50.3 -24.8 39.8C-37.4 29.3 -38.3 8.3 -32.2 -8.6C-26.1 -25.6 -13.1 -38.4 0.5 -38.6C14.1 -38.7 28.1 -26.2 34.2 -9.3Z" fill="#C7D2FE"></path></g><g transform="translate(393 720)"><path d="M54.4 -20.3C60.5 1.3 48.8 26.1 31.2 37.6C13.6 49.1 -9.8 47.4 -24.3 36.2C-38.8 25 -44.4 4.4 -38.9 -16.3C-33.4 -37 -16.7 -57.8 3.7 -59C24.1 -60.2 48.2 -41.8 54.4 -20.3Z" fill="#C7D2FE"></path></g><g transform="translate(697 1010)"><path d="M23.8 -7.7C27.6 4 25.3 17.8 16.8 24.2C8.3 30.7 -6.4 29.8 -17.6 22.1C-28.8 14.5 -36.6 0 -33.1 -11.3C-29.6 -22.6 -14.8 -30.8 -2.4 -30C10 -29.2 20 -19.5 23.8 -7.7Z" fill="#C7D2FE"></path></g><g transform="translate(406 345)"><path d="M23.1 -8.4C25.5 -0.1 19.9 9.8 11.7 15.8C3.4 21.7 -7.6 23.6 -15.3 18.6C-23 13.6 -27.5 1.6 -24.4 -7.6C-21.3 -16.9 -10.6 -23.4 -0.1 -23.3C10.4 -23.3 20.7 -16.7 23.1 -8.4Z" fill="#C7D2FE"></path></g><g transform="translate(1098 834)"><path d="M20 -7C23.1 3 20.8 14.2 13.6 19.6C6.5 25 -5.5 24.6 -13.8 18.6C-22.1 12.7 -26.6 1.3 -23.7 -8.5C-20.8 -18.3 -10.4 -26.4 -1 -26.1C8.4 -25.8 16.9 -17 20 -7Z" fill="#C7D2FE"></path></g><g transform="translate(948 380)"><path d="M38.4 -12.6C44.6 6.6 40.9 28.9 27.4 39C14 49.1 -9.3 47 -24.4 35.6C-39.4 24.1 -46.3 3.4 -40.9 -14.7C-35.4 -32.9 -17.7 -48.5 -0.8 -48.2C16.1 -48 32.2 -31.8 38.4 -12.6Z" fill="#C7D2FE"></path></g><g transform="translate(1068 585)"><path d="M53.5 -13.1C62.2 9.6 57.4 41 40.3 52.7C23.2 64.5 -6.2 56.7 -25 41.4C-43.8 26.1 -52 3.3 -46 -15.6C-40.1 -34.4 -20.1 -49.2 1.1 -49.6C22.4 -50 44.7 -35.9 53.5 -13.1Z" fill="#C7D2FE"></path></g><g transform="translate(890 934)"><path d="M62.6 -22.5C68.2 -3.2 50.8 21.5 28.6 37C6.4 52.6 -20.7 59.2 -40.4 46.9C-60.2 34.6 -72.7 3.5 -64.8 -19.1C-56.8 -41.7 -28.4 -55.8 0.1 -55.8C28.5 -55.8 57 -41.8 62.6 -22.5Z" fill="#C7D2FE"></path></g><g transform="translate(603 329)"><path d="M25.9 -9.7C30 4.2 27.3 19.1 18.8 25.1C10.3 31.1 -4.1 28.3 -14.2 20.6C-24.4 13 -30.3 0.6 -27.2 -11.9C-24.1 -24.4 -12 -37.1 -0.6 -36.9C10.9 -36.7 21.8 -23.7 25.9 -9.7Z" fill="#C7D2FE"></path></g><g transform="translate(342 991)"><path d="M28.3 -9.1C33.3 6 31.5 23.5 21.3 31.3C11.2 39.1 -7.3 37.3 -18.8 28.3C-30.4 19.4 -35 3.2 -30.7 -11C-26.4 -25.2 -13.2 -37.5 -0.8 -37.2C11.7 -37 23.4 -24.2 28.3 -9.1Z" fill="#C7D2FE"></path></g><g transform="translate(889 668)"><path d="M26 -7.5C30.9 6.5 30 23.2 20.9 30.1C11.9 36.9 -5.2 33.9 -17.1 24.9C-28.9 16 -35.4 1.2 -31.7 -11.2C-28 -23.7 -14 -33.7 -1.7 -33.1C10.6 -32.6 21.2 -21.4 26 -7.5Z" fill="#C7D2FE"></path></g><g transform="translate(518 867)"><path d="M22 -7.2C25.8 4.4 24.1 17.7 16.2 23.8C8.3 29.8 -5.8 28.7 -14.5 21.9C-23.3 15.1 -26.5 2.7 -23.2 -8.3C-19.9 -19.3 -9.9 -29 -0.4 -28.8C9.1 -28.7 18.3 -18.8 22 -7.2Z" fill="#C7D2FE"></path></g></g></svg>