<svg id="visual" viewBox="0 0 1900 1900" width="1900" height="1900" xmlns="http://www.w3.org/2000/svg" xmlns:xlink="http://www.w3.org/1999/xlink" version="1.1"><g><g transform="translate(530 754)"><path d="M88 -29.5C98.4 3.3 80.3 44.5 50.2 65.4C20.2 86.3 -21.8 87.1 -50 67C-78.3 46.9 -92.8 6 -82.2 -27.1C-71.6 -60.3 -35.8 -85.6 1.5 -86.1C38.8 -86.6 77.6 -62.2 88 -29.5Z" fill="none" stroke="#C7D2FE" stroke-width="20"></path></g><g transform="translate(890 1501)"><path d="M40.5 -10.8C45.6 2.6 38.2 22.5 24.5 32C10.9 41.4 -8.9 40.5 -20.3 31.4C-31.7 22.3 -34.6 5.1 -29.8 -7.9C-25 -20.9 -12.5 -29.6 2.6 -30.4C17.7 -31.3 35.3 -24.2 40.5 -10.8Z" fill="none" stroke="#C7D2FE" stroke-width="20"></path></g><g transform="translate(1269 1026)"><path d="M80.2 -30.5C88.9 0.7 70.6 36.3 44 54.1C17.4 72 -17.5 72 -38.8 55.9C-60.2 39.8 -68 7.6 -59.3 -23.7C-50.5 -54.9 -25.3 -85.2 5.2 -86.9C35.7 -88.6 71.5 -61.7 80.2 -30.5Z" fill="none" stroke="#C7D2FE" stroke-width="20"></path></g><g transform="translate(1454 1335)"><path d="M40.5 -15.4C44.5 -1.1 34 15.6 20.7 24.3C7.4 33 -8.7 33.5 -19.5 25.9C-30.2 18.3 -35.7 2.4 -31.6 -12.1C-27.5 -26.7 -13.7 -40.1 2.3 -40.8C18.3 -41.6 36.6 -29.7 40.5 -15.4Z" fill="none" stroke="#C7D2FE" stroke-width="20"></path></g><g transform="translate(1574 955)"><path d="M48.5 -17C54.7 3.5 46.1 27.6 29.6 39.3C13.1 51 -11.4 50.2 -26.9 38.6C-42.3 27 -48.7 4.6 -42.7 -15.6C-36.7 -35.7 -18.4 -53.6 1.4 -54C21.1 -54.5 42.2 -37.5 48.5 -17Z" fill="none" stroke="#C7D2FE" stroke-width="20"></path></g><g transform="translate(1138 605)"><path d="M31.9 -10.8C35.8 1.5 29.5 16.7 16.9 26.7C4.2 36.7 -14.7 41.5 -25.5 33.9C-36.3 26.4 -38.9 6.4 -33.3 -8.3C-27.7 -23 -13.9 -32.5 0.1 -32.5C14 -32.5 28.1 -23.1 31.9 -10.8Z" fill="none" stroke="#C7D2FE" stroke-width="20"></path></g><g transform="translate(225 1507)"><path d="M45 -13.2C51.7 6 45.9 30.6 29.8 42.6C13.8 54.7 -12.6 54.2 -31.4 41C-50.2 27.9 -61.4 2.1 -54.9 -16.8C-48.4 -35.7 -24.2 -47.8 -2.5 -47C19.2 -46.1 38.3 -32.4 45 -13.2Z" fill="none" stroke="#C7D2FE" stroke-width="20"></path></g><g transform="translate(816 859)"><path d="M75.2 -22.2C84.5 4 70 40.2 41.6 62C13.1 83.8 -29.3 91.2 -57.6 72.3C-86 53.3 -100.4 8 -88.5 -21.9C-76.5 -51.8 -38.3 -66.2 -2.6 -65.4C33 -64.5 66 -48.3 75.2 -22.2Z" fill="none" stroke="#C7D2FE" stroke-width="20"></path></g><g transform="translate(1198 1597)"><path d="M67.5 -16.3C77 7.3 67 42.9 46.3 56.2C25.5 69.5 -5.9 60.5 -29.6 42.8C-53.3 25.1 -69.1 -1.2 -62.8 -20.3C-56.6 -39.4 -28.3 -51.2 0.3 -51.3C29 -51.4 58 -39.9 67.5 -16.3Z" stroke="#C7D2FE" fill="none" stroke-width="20"></path></g><g transform="translate(628 1076)"><path d="M52.4 -20.7C57.5 -1.4 44 20.3 26.5 31.9C9 43.6 -12.4 45.1 -29.5 34.2C-46.6 23.3 -59.2 0 -53.6 -20.1C-47.9 -40.2 -24 -57 -0.1 -56.9C23.7 -56.9 47.3 -40 52.4 -20.7Z" stroke="#C7D2FE" fill="none" stroke-width="20"></path></g><g transform="translate(1451 1740)"><path d="M54 -15C62.5 8.8 56.9 39.7 39.6 51.6C22.3 63.5 -6.7 56.3 -28 40.4C-49.4 24.5 -63 -0.2 -57 -20.4C-51.1 -40.6 -25.5 -56.3 -1.4 -55.8C22.7 -55.4 45.4 -38.7 54 -15Z" stroke="#C7D2FE" fill="none" stroke-width="20"></path></g><g transform="translate(1535 642)"><path d="M40.9 -16.5C46 2.4 38.2 22.2 23.2 33.4C8.2 44.7 -14.1 47.4 -29.2 37.2C-44.3 27 -52 3.8 -46 -16.4C-39.9 -36.6 -19.9 -53.7 -1 -53.4C17.9 -53.1 35.8 -35.3 40.9 -16.5Z" stroke="#C7D2FE" fill="none" stroke-width="20"></path></g><g transform="translate(923 269)"><path d="M32.1 -8.1C37.7 6.6 35.4 26.2 23.8 35.1C12.3 44.1 -8.7 42.4 -20.8 32.7C-32.9 22.9 -36.2 5.1 -31.2 -8.8C-26.3 -22.6 -13.1 -32.4 0.1 -32.4C13.3 -32.5 26.6 -22.7 32.1 -8.1Z" stroke="#C7D2FE" fill="none" stroke-width="20"></path></g><g transform="translate(136 415)"><path d="M40.6 -13.9C46.7 5.6 41.7 28 28.3 37.4C14.9 46.8 -6.9 43.1 -22.7 31.6C-38.4 20 -48.2 0.6 -43.4 -17.1C-38.6 -34.8 -19.3 -50.8 -1 -50.4C17.3 -50.1 34.5 -33.5 40.6 -13.9Z" stroke="#C7D2FE" fill="none" stroke-width="20"></path></g><g transform="translate(178 885)"><path d="M71.3 -23C81.8 9.1 72.4 48 47.9 65.8C23.3 83.6 -16.4 80.4 -39 61.9C-61.7 43.5 -67.4 9.9 -58.1 -20.6C-48.7 -51.2 -24.4 -78.6 3 -79.6C30.4 -80.5 60.8 -55.1 71.3 -23Z" stroke="#C7D2FE" fill="none" stroke-width="20"></path></g><g transform="translate(482 1678)"><path d="M58.1 -17.3C67.4 9.7 61.6 43.2 38.3 62.4C14.9 81.6 -25.8 86.6 -49.9 69C-74.1 51.4 -81.6 11.2 -70.5 -18.3C-59.4 -47.8 -29.7 -66.6 -2.6 -65.7C24.4 -64.9 48.9 -44.3 58.1 -17.3Z" stroke="#C7D2FE" fill="none" stroke-width="20"></path></g></g></svg>