<svg id="visual" viewBox="0 0 900 600" width="900" height="600" xmlns="http://www.w3.org/2000/svg" xmlns:xlink="http://www.w3.org/1999/xlink" version="1.1"><g><g transform="translate(738 463)"><path d="M54.9 -31.6C65.4 -13.6 64 11.3 52.9 28.3C41.8 45.3 20.9 54.5 1.4 53.6C-18 52.8 -36 42 -47.4 24.9C-58.7 7.7 -63.4 -15.8 -54.3 -32.9C-45.3 -50.1 -22.7 -60.9 -0.2 -60.8C22.3 -60.7 44.5 -49.6 54.9 -31.6Z" fill="#72efdd"></path></g><g transform="translate(209 117)"><path d="M52.3 -29.8C63.1 -11.5 63.9 12.9 53.5 29.5C43.2 46.1 21.6 54.9 3.3 53C-15.1 51.1 -30.1 38.6 -41.4 21.5C-52.6 4.4 -60 -17.2 -52.4 -33.7C-44.9 -50.1 -22.5 -61.3 -0.9 -60.8C20.7 -60.3 41.5 -48.1 52.3 -29.8Z" fill="#72efdd"></path></g><g transform="translate(474 579)"><path d="M45.1 -24.1C55.7 -7.8 59.5 14.4 50.9 30.3C42.2 46.2 21.1 55.8 -2 56.9C-25 58.1 -50.1 50.7 -60.1 34C-70.1 17.4 -65.1 -8.7 -52.6 -26.2C-40.1 -43.6 -20 -52.6 -1.4 -51.8C17.3 -51 34.6 -40.5 45.1 -24.1Z" fill="#72efdd"></path></g><g transform="translate(16 180)"><path d="M43.5 -23.9C51.9 -10.7 50.9 9 42.1 24.9C33.3 40.7 16.6 52.7 -0.8 53.1C-18.2 53.6 -36.4 42.5 -45.7 26.4C-55 10.2 -55.5 -11 -46.4 -24.6C-37.3 -38.2 -18.6 -44.1 -0.5 -43.8C17.6 -43.5 35.2 -37 43.5 -23.9Z" fill="#72efdd"></path></g><g transform="translate(894 249)"><path d="M45.6 -24.3C56.9 -6.9 62.1 15.9 53.5 35.2C44.8 54.4 22.4 69.9 1.8 68.9C-18.8 67.9 -37.7 50.3 -48.2 29.9C-58.7 9.6 -60.8 -13.4 -51.4 -29.7C-42 -45.9 -21 -55.5 -1.9 -54.4C17.2 -53.3 34.4 -41.6 45.6 -24.3Z" fill="#72efdd"></path></g><g transform="translate(72 568)"><path d="M41.8 -21.8C50.6 -8.8 51.8 10.9 43.6 26.9C35.4 42.9 17.7 55.2 1.6 54.3C-14.5 53.4 -29 39.2 -39.4 22C-49.8 4.7 -56.2 -15.7 -48.9 -27.8C-41.7 -39.8 -20.8 -43.5 -2.2 -42.3C16.5 -41 32.9 -34.7 41.8 -21.8Z" fill="#72efdd"></path></g><g transform="translate(113 378)"><path d="M44.5 -25.5C55.6 -6.4 61.1 16 52.8 34C44.4 51.9 22.2 65.4 -0.3 65.6C-22.8 65.7 -45.6 52.6 -57.1 32.8C-68.7 13 -68.9 -13.5 -57.5 -32.7C-46.1 -52 -23.1 -64 -3.2 -62.2C16.7 -60.3 33.4 -44.6 44.5 -25.5Z" fill="#72efdd"></path></g></g></svg>