<svg id="visual" viewBox="0 0 900 450" width="900" height="450" xmlns="http://www.w3.org/2000/svg" xmlns:xlink="http://www.w3.org/1999/xlink" version="1.1"><rect x="0" y="0" width="900" height="450" fill="#72efdd"></rect><defs><linearGradient id="grad1_0" x1="50%" y1="0%" x2="100%" y2="100%"><stop offset="10%" stop-color="#72efdd" stop-opacity="1"></stop><stop offset="90%" stop-color="#72efdd" stop-opacity="1"></stop></linearGradient></defs><defs><linearGradient id="grad1_1" x1="50%" y1="0%" x2="100%" y2="100%"><stop offset="10%" stop-color="#72efdd" stop-opacity="1"></stop><stop offset="90%" stop-color="#72efdd" stop-opacity="1"></stop></linearGradient></defs><defs><linearGradient id="grad1_2" x1="50%" y1="0%" x2="100%" y2="100%"><stop offset="10%" stop-color="#72efdd" stop-opacity="1"></stop><stop offset="90%" stop-color="#72efdd" stop-opacity="1"></stop></linearGradient></defs><defs><linearGradient id="grad1_3" x1="50%" y1="0%" x2="100%" y2="100%"><stop offset="10%" stop-color="#72efdd" stop-opacity="1"></stop><stop offset="90%" stop-color="#72efdd" stop-opacity="1"></stop></linearGradient></defs><defs><linearGradient id="grad2_0" x1="0%" y1="0%" x2="50%" y2="100%"><stop offset="10%" stop-color="#72efdd" stop-opacity="1"></stop><stop offset="90%" stop-color="#72efdd" stop-opacity="1"></stop></linearGradient></defs><defs><linearGradient id="grad2_1" x1="0%" y1="0%" x2="50%" y2="100%"><stop offset="10%" stop-color="#72efdd" stop-opacity="1"></stop><stop offset="90%" stop-color="#72efdd" stop-opacity="1"></stop></linearGradient></defs><defs><linearGradient id="grad2_2" x1="0%" y1="0%" x2="50%" y2="100%"><stop offset="10%" stop-color="#72efdd" stop-opacity="1"></stop><stop offset="90%" stop-color="#72efdd" stop-opacity="1"></stop></linearGradient></defs><defs><linearGradient id="grad2_3" x1="0%" y1="0%" x2="50%" y2="100%"><stop offset="10%" stop-color="#72efdd" stop-opacity="1"></stop><stop offset="90%" stop-color="#72efdd" stop-opacity="1"></stop></linearGradient></defs><g transform="translate(900, 0)"><path d="M0 405C-47.1 381.3 -94.2 357.7 -139.7 337.2C-185.2 316.8 -229.1 299.5 -270.8 270.8C-312.6 242.1 -352.2 202 -374.2 155C-396.2 107.9 -400.6 54 -405 0L0 0Z" fill="#72efdd"></path><path d="M0 303.8C-35.3 286 -70.6 268.3 -104.8 252.9C-138.9 237.6 -171.8 224.6 -203.1 203.1C-234.4 181.6 -264.1 151.5 -280.6 116.2C-297.1 81 -300.4 40.5 -303.7 0L0 0Z" fill="#72efdd"></path><path d="M0 202.5C-23.5 190.7 -47.1 178.8 -69.8 168.6C-92.6 158.4 -114.5 149.8 -135.4 135.4C-156.3 121.1 -176.1 101 -187.1 77.5C-198.1 54 -200.3 27 -202.5 0L0 0Z" fill="#72efdd"></path><path d="M0 101.3C-11.8 95.3 -23.5 89.4 -34.9 84.3C-46.3 79.2 -57.3 74.9 -67.7 67.7C-78.1 60.5 -88 50.5 -93.5 38.7C-99 27 -100.1 13.5 -101.2 0L0 0Z" fill="#72efdd"></path></g><g transform="translate(0, 450)"><path d="M0 -405C36.4 -358.8 72.9 -312.6 124 -299.3C175.1 -286.1 240.9 -305.7 286.4 -286.4C331.8 -267.1 356.9 -208.8 373.2 -154.6C389.6 -100.4 397.3 -50.2 405 0L0 0Z" fill="#72efdd"></path><path d="M0 -303.7C27.3 -269.1 54.6 -234.5 93 -224.5C131.3 -214.5 180.7 -229.3 214.8 -214.8C248.9 -200.3 267.7 -156.6 279.9 -116C292.2 -75.3 298 -37.6 303.8 0L0 0Z" fill="#72efdd"></path><path d="M0 -202.5C18.2 -179.4 36.4 -156.3 62 -149.7C87.6 -143 120.5 -152.8 143.2 -143.2C165.9 -133.5 178.4 -104.4 186.6 -77.3C194.8 -50.2 198.7 -25.1 202.5 0L0 0Z" fill="#72efdd"></path><path d="M0 -101.2C9.1 -89.7 18.2 -78.2 31 -74.8C43.8 -71.5 60.2 -76.4 71.6 -71.6C83 -66.8 89.2 -52.2 93.3 -38.7C97.4 -25.1 99.3 -12.5 101.3 0L0 0Z" fill="#72efdd"></path></g></svg>
