<?xml version="1.0" encoding="iso-8859-1"?>
<!-- Generator: Adobe Illustrator 21.0.0, SVG Export Plug-In . SVG Version: 6.00 Build 0)  -->
<svg xmlns="http://www.w3.org/2000/svg" xmlns:xlink="http://www.w3.org/1999/xlink" version="1.1" id="Capa_1" x="0px" y="0px" viewBox="0 0 512 512" style="enable-background:new 0 0 512 512;" xml:space="preserve" width="512" height="512">
<g>
	<g>
		<g>
			<g>
				<g>
					<g>
						<g>
							<g>
								<g>
									<g>
										<g>
											<g>
												<circle style="fill:#FFAA20;" cx="256" cy="256" r="256"/>
											</g>
										</g>
									</g>
								</g>
							</g>
						</g>
					</g>
				</g>
			</g>
		</g>
	</g>
	<path style="fill:#E67500;" d="M512,256c0-28.195-4.571-55.319-12.99-80.688l-59.339-59.649   c-10.116-10.944-24.585-17.802-40.664-17.802c-21.275,0-39.737,12.002-49.014,29.599H103.936   c-18.532,0-33.695,15.163-33.695,33.695v178.685c0,9.791,4.241,18.628,10.969,24.795l44.152,45.333v2.418l96.806,97.386   C233.24,511.233,244.53,512,256,512C397.385,512,512,397.385,512,256z"/>
	<g>
		<path style="fill:#00DFC1;" d="M383.697,146.995H122.319c-18.532,0-33.695,15.163-33.695,33.695v178.685    c0,18.532,15.163,33.695,33.695,33.695h21.427v38.852l60.798-38.852h179.154c18.532,0,33.695-15.163,33.695-33.695V180.69    C417.392,162.158,402.229,146.995,383.697,146.995z"/>
		<path style="fill:#00AD95;" d="M417.39,180.691v178.68c0,18.54-15.16,33.7-33.69,33.7H234.63v-246.08H383.7    c4.72,0,9.22,0.98,13.31,2.76C408.97,154.941,417.39,166.882,417.39,180.691z"/>
		<path style="fill:#FFFFFF;" d="M365.315,127.46H103.936c-18.532,0-33.695,15.163-33.695,33.695v178.685    c0,18.532,15.162,33.695,33.695,33.695h21.427v38.852l60.798-38.852h179.154c18.532,0,33.694-15.163,33.694-33.695V161.154    C399.009,142.622,383.847,127.46,365.315,127.46z"/>
		<path style="fill:#FFF5CB;" d="M399.01,161.152v178.69c0,18.53-15.16,33.69-33.7,33.69H234.63v-246.07h130.68    c14.54,0,27,9.32,31.7,22.29C398.3,153.311,399.01,157.152,399.01,161.152z"/>
		<g>
			<circle style="fill:#FF0335;" cx="399.007" cy="153.244" r="55.383"/>
			<path style="fill:#C2001B;" d="M454.395,153.246c0,30.588-24.797,55.385-55.385,55.385V97.861     C429.598,97.861,454.395,122.659,454.395,153.246z"/>
			<g>
				<path style="fill:#FFFFFF;" d="M421.844,167.791v12.278h-41.199v-12.278h14.409v-30.746c-0.609,0.812-1.573,1.641-2.892,2.486      c-1.319,0.847-2.758,1.641-4.313,2.385c-1.557,0.745-3.163,1.354-4.82,1.827c-1.658,0.474-3.129,0.71-4.413,0.71v-12.684      c1.218,0,2.704-0.389,4.464-1.167c1.758-0.777,3.484-1.708,5.175-2.791c1.691-1.081,3.162-2.147,4.414-3.196      c1.251-1.048,2.046-1.877,2.385-2.486h13.901v45.663H421.844z"/>
			</g>
			<g>
				<path style="fill:#FFF5CB;" d="M408.956,167.796v-45.668h-9.946v57.937h22.839v-12.268H408.956z"/>
			</g>
		</g>
		<g>
			<circle style="fill:#00DFC1;" cx="151.371" cy="251.099" r="22.448"/>
			<circle style="fill:#00DFC1;" cx="234.625" cy="251.099" r="22.448"/>
			<path style="fill:#00AD95;" d="M257.07,251.102c0,12.39-10.05,22.45-22.44,22.45v-44.9     C247.02,228.652,257.07,238.702,257.07,251.102z"/>
			<circle style="fill:#00AD95;" cx="317.88" cy="251.099" r="22.448"/>
		</g>
	</g>
</g>















</svg>
